# xmcd CD database file
#
# Track frame offsets:
#	182
#	32975
#	69392
#	120972
#	157940
#
# Disc length: 2711 seconds
#
# Revision: 0
# Processed by: cddbd v1.4PL0 Copyright (c) Steve Scherf et al.
# Submitted via: CDex 1.50
#
DISCID=340a9505
DTITLE=Ben Webster - Live in Paris 1972
DYEAR=1980
DGENRE=Jazz
TTITLE0=I Got Rhythm
TTITLE1=Old Folks
TTITLE2=In A Mellotone
TTITLE3=My Romance
TTITLE4=Peridido
EXTD=YEAR: 1980
EXTT0=
EXTT1=
EXTT2=
EXTT3=
EXTT4=
PLAYORDER=
